<svg width="33" height="34" viewBox="0 0 33 34" fill="none" xmlns="http://www.w3.org/2000/svg">
    <path fill-rule="evenodd" clip-rule="evenodd"
        d="M23.5478 17.7484C21.7103 18.4924 19.7267 18.9513 17.6521 19.0702C17.2943 19.0907 16.9339 19.1011 16.5709 19.1011C16.208 19.1011 15.8475 19.0907 15.4897 19.0702C13.4146 18.9513 11.4307 18.4922 9.59275 17.7479C5.7357 16.1859 2.52175 13.3676 0.458313 9.80056C3.67453 4.24067 9.68589 0.5 16.5709 0.5C23.456 0.5 29.4673 4.24067 32.6836 9.80056C30.6199 13.368 27.4055 16.1865 23.5478 17.7484Z"
        fill="white" />
    <path
        d="M9.5925 19.1958C9.14816 19.0158 8.71235 18.8192 8.28585 18.6067C6.89977 19.5831 5.72802 20.7992 4.8457 22.1866C6.34541 24.5449 8.68132 26.4082 11.4846 27.4409C12.8204 27.933 14.2624 28.2365 15.7706 28.3151H17.3422C18.85 28.2365 21.5002 29.7303 17.6519 33.4999C20.4556 32.4673 26.7672 24.5452 28.267 22.1866C27.3872 20.8032 26.2197 19.59 24.8387 18.615C24.4172 18.8246 23.9865 19.0186 23.5476 19.1963C21.71 19.9403 19.7265 20.3992 17.6519 20.5181C17.2941 20.5386 16.9336 20.549 16.5707 20.549C16.2078 20.549 15.8473 20.5386 15.4895 20.5181C13.4144 20.3992 11.4304 19.9401 9.5925 19.1958Z"
        fill="white" />
    <rect x="8.80139" y="7.42139" width="15.573" height="5.5618" rx="2.7809" fill="#162550" />
    <ellipse cx="20.8824" cy="10.1715" rx="1.01966" ry="1.01966" fill="#04FED1" />
    <ellipse cx="16.5563" cy="23.8905" rx="1.01966" ry="1.01966" fill="#162550" />
    <ellipse cx="12.4783" cy="10.1715" rx="1.01966" ry="1.01966" fill="#04FED1" />
    <ellipse cx="12.4783" cy="23.8905" rx="1.01966" ry="1.01966" fill="#162550" />
    <ellipse cx="20.6356" cy="23.8905" rx="1.01966" ry="1.01966" fill="#162550" />
</svg>