<?xml version="1.0" encoding="UTF-8"?>
<svg viewBox="0 0 640 480" xmlns="http://www.w3.org/2000/svg">
    <defs>
        <linearGradient id="a" x1="-2.0816" x2="-2.0702" y1="4.7178" y2="4.7178"
            gradientTransform="matrix(170.14 387.82 387.82 -170.14 -1.2746e5 1.6994e5)">
            <stop stopColor="#fff" offset="0" />
            <stop offset="1" />
        </linearGradient>
    </defs>
    <g transform="rotate(-5 336.77 213.06)">
        <path
            d="m500.25 172.04c5.3856 23.998 10.771 47.995 16.163 71.993 1.9103 8.4902 11.164 30.172 1.622 36.999-5.3412 3.8206-14.931 4.1374-21.004 5.4648-19.695 4.3021-39.381 8.6612-59.058 13.04-76.764 17.101-152.95 36.445-228.77 57.328-7.543 2.0782-16.005 1.6474-17.642-8.1386-3.0444-18.191-6.3898-36.346-9.9475-54.442-8.9337-45.404-19.746-90.456-29.893-135.6-5.4362-24.162 41.076-24.923 56.907-28.477 53.21-11.953 106.57-23.354 159.46-36.66 34.059-8.5726 68.007-17.624 101.74-27.39 14.535-4.2134 14.332 17.522 15.609 25.762 4.1374 26.836 8.8609 53.625 14.814 80.122"
            fill="#fffff7" />
        <path
            d="m514.64 280.47c-37.674 13.309-80.239 17.532-119.26 26.503-43.097 9.9063-85.951 20.906-128.7 32.222-14.905 3.9347-29.789 7.9294-44.662 11.978-5.8481 1.5934-14.931 6.1395-21.257 4.9864-10.039-1.8406-9.6528-22.566-10.952-29.766-4.2831-23.779-8.9052-47.498-14.199-71.074-4.828-21.476-9.6592-42.955-14.487-64.427-2.056-9.1333-16.233-44.216-0.87437-47.666 19.721-4.432 39.442-8.8577 59.15-13.29 84.082-18.888 168.12-37.686 250.91-61.747 15.194-4.4098 15.887 41.824 17.117 49.012 3.8332 22.407 8.373 44.662 13.362 66.838 4.337 19.277 8.6677 38.554 13.001 57.828 1.7013 7.5715 12.618 34.446 0.84906 38.602m-357.73-140.69c-17.915 6.3296-0.17426 50.65 2.4457 62.311 5.0244 22.353 10.226 44.681 15.007 67.092 4.7108 22.068 8.9179 44.235 12.827 66.461 1.7741 10.103 2.7593 28.645 18.555 24.311 26.149-7.1787 52.342-14.218 78.579-21.074 63.068-16.508 126.47-31.106 190.11-45.182 11.38-2.5122 54.236-4.6982 49.81-24.378-4.9421-21.983-9.8841-43.965-14.832-65.948-9.5421-42.438-18.327-84.953-24.324-128.08-2.772-19.955-29.256-7.3244-40.287-4.2704-32.047 8.8957-64.212 17.361-96.519 25.242-35.028 8.5473-70.279 16.188-105.46 24.102-27.996 6.2948-58.811 9.8334-85.916 19.407"
            fill="url(#a)" />
        <path
            d="m487.56 186.7c4.9294 21.932 9.8588 43.854 14.798 65.78 2.0813 9.2664 3.5544 17.956-8.0943 20.497-38.082 8.3001-76.13 16.752-114.16 25.287-44.168 9.919-87.944 21.432-131.52 33.673-10.508 2.959-21.001 5.94-31.477 9.0098-12.561 3.6717-13.378-9.7162-14.782-18.137-7.9105-47.295-18.827-93.931-29.352-140.69-1.7645-7.8535-10.011-27.387 2.9748-30.311 8.9337-4.9072 24.02-5.3919 33.844-7.5968 83.467-18.754 166.8-37.582 249.02-61.323 13.955-4.0265 13.502 20.221 14.677 27.729 3.9884 25.477 8.4173 50.916 14.069 76.082"
            fill="#e6e6e6" />
        <path
            d="m464.8 96.811c1.3179 6.0572-8.937 20.639-11.43 25.699-9.1016 18.422-18.827 36.549-29.101 54.347-11.386 19.714-23.415 39.182-37.107 57.388-9.6877 12.878-21.612 29.361-37.173 35.564-12.906 5.148-29.19-2.9906-40.648-8.4744-21.184-10.144-41.019-23.183-60.255-36.59-17.373-12.114-34.332-24.853-50.821-38.149-1.5333-1.245-21.783-19.863-22.211-19.66 2.3633-1.1024 11.272 4.8312 13.245 5.8038 11.281 5.5155 22.534 11.088 33.923 16.398 26.735 12.476 54.559 24.989 83.613 30.888 35.104 7.1216 56.726-13.543 80.606-37.408 17.3-17.288 33.479-35.662 49.376-54.236 2.5661-2.9938 28.692-28.718 27.983-31.569"
            fill="#cfcaba" />
        <path
            d="m464.64 96.735c0.13623-0.009521 0.13623-0.009521 0 0m-0.0412 0.0032c-2.0972 1.6854-3.9727 3.5957-5.6295 5.7246 1.6568-2.1321 3.5323-4.0392 5.6295-5.7246m-288.52 70.184c-0.057037 0.034866-0.057037 0.034866 0 0"
            fill="#ffffd9" />
        <path
            d="m458.96 102.46c-0.52277 0.60509-1.0487 1.2038-1.5745 1.8089 0.52582-0.6051 1.0518-1.2038 1.5745-1.8089m5.6326-5.7246c0.057068-0.006332 0.057068-0.006332 0 0m-288.57 70.409c0.009521 0.02533 0.009521 0.02533 0 0m0.0507-0.2249c1.4921 0.59874 7.318 1.8343 7.7901 3.1775-0.80466-0.38014-6.3296-3.6907-7.7901-3.1775"
            fill="#d7cca4" />
        <path
            d="m176 167.07c1.283 7.9612 23.602 14.196 29.896 16.965 19.73 8.6835 38.979 18.403 58.779 26.928 22.296 9.6085 57.455 27.945 82.203 13.686 26.44-15.248 47.323-42.302 67.082-64.947 9.862-11.3 19.556-22.743 29.573-33.907 5.3951-6.0065 22.993-20.003 21.273-28.984 0.52905 2.4203-19.524 21.647-21.894 24.438-10.796 12.694-21.682 25.322-32.909 37.642-19.398 21.289-43.123 51.458-71.289 61.412-25.347 8.7151-59.679-7.3814-82.691-16.752-16.112-6.5609-31.914-13.866-47.574-21.444-3.4309-1.6632-31.864-12.346-32.45-15.035"
            fill="#857d63" />
        <path
            d="m338.71 220.3m118.68-116.03c-33.029 38.19-66.623 88.187-111.78 112.87 45.223-24.72 78.636-74.698 111.78-112.87m-273.53 65.824c23.947 11.427 47.571 23.44 72.17 33.451 22.825 9.298 55.779 24.637 81.05 17.281-25.268 7.353-58.212-7.9833-81.037-17.278-14.918-6.073-29.57-12.786-44.089-19.762-7.8629-3.7762-19.407-12.605-28.094-13.692"
            fill="#ded3ab" />
        <path
            d="m464.6 96.738c-2.9335 1.0391-5.1954 5.224-7.204 7.5335 0.21545-0.18691 7.2009-7.5272 7.204-7.5335m-288.52 70.184c-0.57973 0.20593 8.2114 3.2916 7.7806 3.1712-0.79514-0.37386-6.3233-3.6844-7.7806-3.1712"
            fill="#d6cba3" />
        <path
            d="m205.04 336.49c-0.92508 1.3686-1.3179 2.829-1.1658 4.4003 5.4616 3.9156 0.57657-5.5249 1.1658-4.4003"
            fill="#ffffe6" />
        <path
            d="m272.14 240.17c-7.4733 11.585-72.56 91.498-65.4 98.632 26.567-27.938 49.04-63.502 69.984-95.74-1.5302-0.96942-3.0572-1.9324-4.5841-2.8924"
            fill="#fffff0" />
        <path
            d="m286.82 219.86c-6.8936 4.809-10.264 13.436-14.684 20.304 7.8122 4.9928 9.8366-5.0625 13.451-11.722 1.6315-3.0064 5.243-7.109 1.2323-8.5821"
            fill="#fef3cb" />
        <path
            d="m287.95 219.24c-1.831 0.64626-1.4826 1.1151 1.0455 1.4098 0.28827-1.1975-0.063354-1.6696-1.0455-1.4098"
            fill="#eadfb7" />
        <path
            d="m203.44 329.57c0.20908-0.31998-6.2093 8.7722-4.9421 9.6909 3.4658 2.4868 5.2969-7.467 4.9421-9.6909"
            fill="#fffad2" />
        <path
            d="m268.27 237.67c-12.143 18.14-24.996 35.757-37.778 53.441-7.0203 9.7036-28.372 30.596-26.348 42.895 8.5853-10.23 63.243-96.909 64.126-96.335"
            fill="#c7c7c7" />
        <g fill="#857d63">
            <path
                d="m282.06 218.08c-5.6739 5.0973-9.6117 13.353-13.794 19.594 3.2187 2.0972 18.669-17.712 13.794-19.594" />
            <path d="m282.89 217.53c-2.8258 0.99474 2.3633-0.83638 0 0" />
        </g>
        <path
            d="m269.93 238.74c-21.84 27.717-42.638 56.846-59.767 87.738 21.584-27.923 42.86-56.65 61.979-86.315-0.73502-0.47522-1.4763-0.94722-2.2112-1.4225"
            fill="#c7c7c7" />
        <path
            d="m280.83 225.62c-3.8174 4.2198-7.3909 8.6549-10.907 13.119 4.2197 2.7245 8.8007-9.1174 10.907-13.119"
            fill="#857d63" />
        <path
            d="m504.46 262.28c0.03479 0.43088 1.9989 8.4078 4.2197 4.337-0.85852-1.904-2.2651-3.3518-4.2197-4.337"
            fill="#ffffe6" />
        <path
            d="m404.6 209.12c-0.79828 1.2228-1.6029 2.4456-2.4013 3.6685 32.009 19.28 66.382 40.753 101.86 53.07 2.2081-7.2388-34.645-20.88-40.823-24.099-19.816-10.35-39.502-21.08-58.64-32.64"
            fill="#fffff0" />
        <path
            d="m381.75 197.07c3.2978-1.1658 15.729 23.022 22.857 12.048-4.5365-2.734-16.85-14.167-22.857-12.048"
            fill="#fef3cb" />
        <path
            d="m424.43 215.21c11.832 6.7035 23.744 13.258 35.77 19.604-11.81-6.7446-23.712-13.325-35.77-19.604"
            fill="#ffffe1" />
        <path
            d="m407.08 205.26c-0.98206 1.5397 14.915 8.674 17.354 9.9444-5.8007-3.2821-11.576-6.6148-17.354-9.9444"
            fill="#fdf0c8" />
        <path
            d="m384.38 193.66c0.23755-0.082367 19.863 16.055 22.702 11.604-3.659-2.1067-17.861-13.318-22.702-11.604"
            fill="#857d63" />
        <path
            d="m503.46 257.45c0.52277 2.3063 5.6264 9.995 7.9769 5.6898 0.73187-1.3496-8.3064-5.8767-7.9769-5.6898"
            fill="#fffad2" />
        <g fill="#c7c7c7">
            <path
                d="m460.2 234.81c14.24 8.1386 28.962 20.744 44.159 26.659-1.904-10.942-34.804-21.704-44.159-26.659" />
            <path
                d="m406.47 206.22c-0.62418 0.96626-1.2514 1.9357-1.8692 2.9019 31.198 18.84 63.803 37.553 97.555 51.47-29.535-21.004-62.989-38.808-95.686-54.372" />
        </g>
        <path
            d="m388.13 198.36c4.5555 3.469 14.852 13.302 18.34 7.8566-5.9939-2.8575-12.061-5.6929-18.34-7.8566"
            fill="#857d63" />
    </g>
</svg>